TITLE "WEFUNK SHOW #787"
PERFORMER "WEFUNK RADIO"
REM Year  : 2014
REM Genre : HipHop
FILE "WeFunk_Show_787_2014-08-08.mp3" MP3
	TRACK 01 AUDIO
		TITLE "intro"
		PERFORMER "WEFUNK RADIO"
		INDEX 01 00:00:00
	TRACK 02 AUDIO
		TITLE "press play"
		PERFORMER "zackey force funk"
		INDEX 01 01:44:53
	TRACK 03 AUDIO
		TITLE "talk (over s-boogy - future - pop lock)"
		PERFORMER "WEFUNK RADIO"
		INDEX 01 05:10:36
	TRACK 04 AUDIO
		TITLE "chérie"
		PERFORMER "fred simon"
		INDEX 01 10:09:62
	TRACK 05 AUDIO
		TITLE "wenn der urlaub kommt"
		PERFORMER "manfred krug"
		INDEX 01 12:11:00
	TRACK 06 AUDIO
		TITLE "the shakedown (say yeah)"
		PERFORMER "speedometer feat. martha high, myles sanko & the stilhouettes"
		INDEX 01 12:40:44
	TRACK 07 AUDIO
		TITLE "the grunt"
		PERFORMER "j.b.'s"
		INDEX 01 15:58:01
	TRACK 08 AUDIO
		TITLE "vitamins"
		PERFORMER "n.o.r.e feat. pete rock"
		INDEX 01 20:16:38
	TRACK 09 AUDIO
		TITLE "oh god"
		PERFORMER "busta rhymes feat. raekwon"
		INDEX 01 23:34:72
	TRACK 10 AUDIO
		TITLE "charly murphie"
		PERFORMER "e.m.c."
		INDEX 01 26:43:49
	TRACK 11 AUDIO
		TITLE "four corners"
		PERFORMER "dynas feat. supastition, stan steam, reach, b.o.x. & dave ghetto"
		INDEX 01 30:07:71
	TRACK 12 AUDIO
		TITLE "bumpin loud"
		PERFORMER "lords of the underground"
		INDEX 01 34:12:40
	TRACK 13 AUDIO
		TITLE "i spazz"
		PERFORMER "kemikel ali feat. peedi crakk"
		INDEX 01 37:07:60
	TRACK 14 AUDIO
		TITLE ""
		PERFORMER ""
		INDEX 01 40:40:66
	TRACK 15 AUDIO
		TITLE "dedication to bambaataa (diamond d. reminisce mix)"
		PERFORMER "justice system"
		INDEX 01 55:27:03
	TRACK 16 AUDIO
		TITLE "latifah's had it up 2 here"
		PERFORMER "queen latifah"
		INDEX 01 59:40:49
	TRACK 17 AUDIO
		TITLE "clap yo hands"
		PERFORMER "naughty by nature"
		INDEX 01 62:26:65
	TRACK 18 AUDIO
		TITLE "love me or leave me alone"
		PERFORMER "brand nubian"
		INDEX 01 66:01:43
	TRACK 19 AUDIO
		TITLE "the love song (45 king remix)"
		PERFORMER "bush babees feat. mos def"
		INDEX 01 68:18:24
	TRACK 20 AUDIO
		TITLE "thieves in the night"
		PERFORMER "black star"
		INDEX 01 70:56:30
	TRACK 21 AUDIO
		TITLE "if the papes come"
		PERFORMER "a tribe called quest"
		INDEX 01 74:17:28
	TRACK 22 AUDIO
		TITLE "butter"
		PERFORMER "a tribe called quest"
		INDEX 01 75:25:09
	TRACK 23 AUDIO
		TITLE "gentle smiles (d.j. day remix)"
		PERFORMER "gary bartz"
		INDEX 01 77:10:30
	TRACK 24 AUDIO
		TITLE "daily bread bonus jawn"
		PERFORMER "d.j. day"
		INDEX 01 79:22:54
	TRACK 25 AUDIO
		TITLE "little people"
		PERFORMER "voices of east harlem"
		INDEX 01 81:38:52
	TRACK 26 AUDIO
		TITLE "never stop loving me"
		PERFORMER "curtis mayfield"
		INDEX 01 84:46:56
	TRACK 27 AUDIO
		TITLE "as"
		PERFORMER "stevie wonder"
		INDEX 01 87:54:04
	TRACK 28 AUDIO
		TITLE "upper echelon (88-keys remix)"
		PERFORMER "talib kweli feat. nemo achida"
		INDEX 01 93:16:17
	TRACK 29 AUDIO
		TITLE "bon appetit"
		PERFORMER "soundsci"
		INDEX 01 96:31:23
	TRACK 30 AUDIO
		TITLE "rock the bells"
		PERFORMER "rapsody feat. kendrick lamar"
		INDEX 01 99:28:03
	TRACK 31 AUDIO
		TITLE "talk (over theo 3, adam bomb & korry deez - significant instrumental)"
		PERFORMER "WEFUNK RADIO"
		INDEX 01 101:54:09
	TRACK 32 AUDIO
		TITLE "suffer (d.j. juls remix)"
		PERFORMER "m.anifest"
		INDEX 01 105:13:59
	TRACK 33 AUDIO
		TITLE "roses"
		PERFORMER "pete rock & smif-n-wessun feat. freeway"
		INDEX 01 108:36:02
	TRACK 34 AUDIO
		TITLE "la ila i la la"
		PERFORMER "osibisa"
		INDEX 01 113:21:47